<svg width="73" height="72" viewBox="0 0 73 72" fill="none" xmlns="http://www.w3.org/2000/svg">
  <rect width="71.6198" height="71.6198" transform="translate(0.580322 0.364258)" fill="#222222" />
  <path fill-rule="evenodd" clip-rule="evenodd"
    d="M29.4036 6.64298C29.2381 6.54739 29.0341 6.54739 28.8685 6.64299L19.7091 11.9312C19.5435 12.0267 19.4415 12.2034 19.4415 12.3946V22.9709C19.4415 23.1621 19.5435 23.3388 19.7091 23.4344L28.8685 28.7226C29.0341 28.8182 29.2381 28.8182 29.4036 28.7226L38.563 23.4344C38.7286 23.3388 38.8306 23.1621 38.8306 22.9709V12.3946C38.8306 12.2034 38.7286 12.0267 38.563 11.9312L29.4036 6.64298ZM50.7995 6.64298C50.6339 6.54739 50.4299 6.54739 50.2643 6.64299L41.105 11.9312C40.9394 12.0267 40.8374 12.2034 40.8374 12.3946V22.9709C40.8374 23.1621 40.9394 23.3388 41.105 23.4344L50.2643 28.7226C50.4299 28.8182 50.6339 28.8182 50.7995 28.7226L59.9589 23.4344C60.1244 23.3388 60.2264 23.1621 60.2264 22.9709V12.3946C60.2264 12.2034 60.1244 12.0267 59.9589 11.9312L50.7995 6.64298ZM18.1706 25.2537C18.3362 25.1581 18.5402 25.1581 18.7057 25.2537L27.8651 30.5419C28.0307 30.6375 28.1327 30.8141 28.1327 31.0053V41.5817C28.1327 41.7729 28.0307 41.9495 27.8651 42.0451L18.7057 47.3333C18.5402 47.4289 18.3362 47.4289 18.1706 47.3333L9.01123 42.0451C8.84565 41.9495 8.74365 41.7729 8.74365 41.5817V31.0053C8.74365 30.8141 8.84565 30.6375 9.01123 30.5419L18.1706 25.2537ZM40.1015 25.2537C39.936 25.1581 39.732 25.1581 39.5664 25.2537L30.407 30.5419C30.2414 30.6375 30.1394 30.8141 30.1394 31.0053V41.5817C30.1394 41.7729 30.2414 41.9495 30.407 42.0451L39.5664 47.3333C39.732 47.4289 39.936 47.4289 40.1015 47.3333L49.2609 42.0451C49.4265 41.9495 49.5285 41.7729 49.5285 41.5817V31.0053C49.5285 30.8141 49.4265 30.6375 49.2609 30.5419L40.1015 25.2537ZM28.8685 43.8644C29.0341 43.7688 29.2381 43.7688 29.4036 43.8644L38.563 49.1526C38.7286 49.2482 38.8306 49.4249 38.8306 49.6161V60.1924C38.8306 60.3836 38.7286 60.5603 38.563 60.6558L29.4036 65.944C29.2381 66.0396 29.0341 66.0396 28.8685 65.944L19.7091 60.6558C19.5435 60.5603 19.4415 60.3836 19.4415 60.1924V49.6161C19.4415 49.4249 19.5435 49.2482 19.7091 49.1526L28.8685 43.8644ZM50.7995 43.8644C50.6339 43.7688 50.4299 43.7688 50.2643 43.8644L41.105 49.1526C40.9394 49.2482 40.8374 49.4249 40.8374 49.6161V60.1924C40.8374 60.3836 40.9394 60.5603 41.105 60.6558L50.2643 65.944C50.4299 66.0396 50.6339 66.0396 50.7995 65.944L59.9589 60.6558C60.1244 60.5603 60.2264 60.3836 60.2264 60.1924V49.6161C60.2264 49.4249 60.1244 49.2482 59.9589 49.1526L50.7995 43.8644ZM31.0191 35.2366V37.6087L31.0191 41.151C31.0191 41.2743 31.085 41.3881 31.1919 41.4495L39.6768 46.3252C39.7833 46.3864 39.9145 46.3862 40.0209 46.3246L48.4402 41.4497C48.5465 41.3882 48.612 41.2746 48.612 41.1518V38.8119L47.9175 37.6557V35.7697C47.9175 35.5672 47.8115 35.3795 47.6379 35.2746L46.0505 34.3158C45.6642 34.0824 45.1706 34.36 45.1706 34.8108V39.868H44.0719V42.0802H43.5225V29.344C43.5225 28.8274 42.8956 28.5698 42.5312 28.9367L41.3251 30.1509V32.6782L39.845 34.1682C39.7373 34.2766 39.677 34.423 39.677 34.5756V42.0802H39.1276V38.5464C39.1276 38.3394 39.0108 38.15 38.8256 38.0568C38.4602 37.8729 38.0288 38.1379 38.0288 38.5464V42.0802H37.4795V35.7428C37.4795 35.2261 36.8526 34.9685 36.4881 35.3354L35.9994 35.8274C35.8918 35.9358 35.8314 36.0821 35.8314 36.2348V42.0802H34.7326V39.868H34.1833V38.7874C34.1833 38.4678 33.9237 38.2088 33.6036 38.2088H33.0846V34.7514C33.0846 34.3139 32.617 34.0347 32.2308 34.2416L31.3247 34.7268C31.1365 34.8275 31.0191 35.0234 31.0191 35.2366Z"
    fill="url(#paint0_radial_231_2135)" />
  <defs>
    <radialGradient id="paint0_radial_231_2135" cx="0" cy="0" r="1" gradientUnits="userSpaceOnUse"
      gradientTransform="translate(29.1795 66.0235) rotate(-69.3804) scale(63.5385 48.2492)">
      <stop stop-color="#F5D0D0" />
      <stop offset="0.137868" stop-color="#F1E3D1" stop-opacity="0.862132" />
      <stop offset="0.285203" stop-color="#F1F2C1" stop-opacity="0.84" />
      <stop offset="0.400758" stop-color="#D5EEC5" stop-opacity="0.86" />
      <stop offset="0.528388" stop-color="#C9E9D8" stop-opacity="0.85" />
      <stop offset="0.63409" stop-color="#CDDEE6" stop-opacity="0.79" />
      <stop offset="0.739489" stop-color="#E6DAFF" stop-opacity="0.56" />
      <stop offset="0.841756" stop-color="#F8DDFF" stop-opacity="0.61" />
      <stop offset="0.930734" stop-color="#FDC7F1" stop-opacity="0.8" />
      <stop offset="1" stop-color="#FEBFBF" stop-opacity="0.81" />
    </radialGradient>
  </defs>
</svg>