<svg width="60" height="60" viewBox="0 0 60 60" fill="none" xmlns="http://www.w3.org/2000/svg">
  <path
    d="M46.875 16.8751H37.5469C36.8648 16.8352 24.9797 15.9985 13.6617 6.50633C13.1152 6.04731 12.449 5.7538 11.7414 5.66027C11.0338 5.56674 10.3143 5.67708 9.66722 5.97833C9.02018 6.27957 8.47255 6.75921 8.08865 7.3609C7.70476 7.9626 7.50054 8.66135 7.5 9.37508V46.8751C7.5001 47.589 7.70399 48.2881 8.08771 48.8901C8.47143 49.4921 9.01904 49.9721 9.66616 50.2737C10.3133 50.5752 11.033 50.6858 11.7408 50.5923C12.4486 50.4989 13.115 50.2053 13.6617 49.7462C22.5141 42.3212 31.7086 40.193 35.625 39.5977V47.0321C35.6242 47.65 35.7761 48.2586 36.0673 48.8037C36.3584 49.3487 36.7797 49.8134 37.2937 50.1563L39.8719 51.8743C40.3702 52.2069 40.9409 52.4153 41.5363 52.4819C42.1317 52.5486 42.7344 52.4717 43.294 52.2575C43.8535 52.0434 44.3536 51.6983 44.7524 51.2512C45.1512 50.8041 45.437 50.2679 45.5859 49.6876L48.3445 39.2907C51.1963 38.9404 53.8059 37.5122 55.6382 35.2991C57.4705 33.086 58.3866 30.2557 58.1986 27.3887C58.0107 24.5217 56.7329 21.8352 54.6273 19.8803C52.5218 17.9254 49.7481 16.8501 46.875 16.8751ZM41.9531 48.7243V48.7501L39.375 47.0321V39.3751H44.4375L41.9531 48.7243ZM46.875 35.6251H39.375V20.6251H46.875C48.8641 20.6251 50.7718 21.4153 52.1783 22.8218C53.5848 24.2283 54.375 26.136 54.375 28.1251C54.375 30.1142 53.5848 32.0219 52.1783 33.4284C50.7718 34.8349 48.8641 35.6251 46.875 35.6251Z"
    fill="#404040" />
</svg>