<svg width="60" height="60" viewBox="0 0 60 60" fill="none" xmlns="http://www.w3.org/2000/svg">
  <path
    d="M48.75 7.5H43.125V5.625C43.125 5.12772 42.9275 4.65081 42.5758 4.29917C42.2242 3.94754 41.7473 3.75 41.25 3.75C40.7527 3.75 40.2758 3.94754 39.9242 4.29917C39.5725 4.65081 39.375 5.12772 39.375 5.625V7.5H20.625V5.625C20.625 5.12772 20.4275 4.65081 20.0758 4.29917C19.7242 3.94754 19.2473 3.75 18.75 3.75C18.2527 3.75 17.7758 3.94754 17.4242 4.29917C17.0725 4.65081 16.875 5.12772 16.875 5.625V7.5H11.25C10.2554 7.5 9.30161 7.89509 8.59835 8.59835C7.89509 9.30161 7.5 10.2554 7.5 11.25V48.75C7.5 49.7446 7.89509 50.6984 8.59835 51.4016C9.30161 52.1049 10.2554 52.5 11.25 52.5H48.75C49.7446 52.5 50.6984 52.1049 51.4016 51.4016C52.1049 50.6984 52.5 49.7446 52.5 48.75V11.25C52.5 10.2554 52.1049 9.30161 51.4016 8.59835C50.6984 7.89509 49.7446 7.5 48.75 7.5ZM19.6875 43.125C19.1312 43.125 18.5875 42.96 18.125 42.651C17.6624 42.342 17.302 41.9027 17.0891 41.3888C16.8762 40.8749 16.8205 40.3094 16.929 39.7638C17.0376 39.2182 17.3054 38.7171 17.6988 38.3238C18.0921 37.9304 18.5932 37.6626 19.1388 37.554C19.6844 37.4455 20.2499 37.5012 20.7638 37.7141C21.2777 37.927 21.717 38.2874 22.026 38.75C22.3351 39.2125 22.5 39.7562 22.5 40.3125C22.5 41.0584 22.2037 41.7738 21.6762 42.3012C21.1488 42.8287 20.4334 43.125 19.6875 43.125ZM30 43.125C29.4437 43.125 28.9 42.96 28.4375 42.651C27.9749 42.342 27.6145 41.9027 27.4016 41.3888C27.1887 40.8749 27.133 40.3094 27.2415 39.7638C27.3501 39.2182 27.6179 38.7171 28.0113 38.3238C28.4046 37.9304 28.9057 37.6626 29.4513 37.554C29.9969 37.4455 30.5624 37.5012 31.0763 37.7141C31.5902 37.927 32.0295 38.2874 32.3385 38.75C32.6475 39.2125 32.8125 39.7562 32.8125 40.3125C32.8125 41.0584 32.5162 41.7738 31.9887 42.3012C31.4613 42.8287 30.7459 43.125 30 43.125ZM30 33.75C29.4437 33.75 28.9 33.585 28.4375 33.276C27.9749 32.967 27.6145 32.5277 27.4016 32.0138C27.1887 31.4999 27.133 30.9344 27.2415 30.3888C27.3501 29.8432 27.6179 29.3421 28.0113 28.9488C28.4046 28.5554 28.9057 28.2876 29.4513 28.179C29.9969 28.0705 30.5624 28.1262 31.0763 28.3391C31.5902 28.552 32.0295 28.9124 32.3385 29.375C32.6475 29.8375 32.8125 30.3812 32.8125 30.9375C32.8125 31.6834 32.5162 32.3988 31.9887 32.9262C31.4613 33.4537 30.7459 33.75 30 33.75ZM40.3125 43.125C39.7562 43.125 39.2125 42.96 38.75 42.651C38.2874 42.342 37.927 41.9027 37.7141 41.3888C37.5012 40.8749 37.4455 40.3094 37.554 39.7638C37.6626 39.2182 37.9304 38.7171 38.3238 38.3238C38.7171 37.9304 39.2182 37.6626 39.7638 37.554C40.3094 37.4455 40.8749 37.5012 41.3888 37.7141C41.9027 37.927 42.342 38.2874 42.651 38.75C42.96 39.2125 43.125 39.7562 43.125 40.3125C43.125 41.0584 42.8287 41.7738 42.3012 42.3012C41.7738 42.8287 41.0584 43.125 40.3125 43.125ZM40.3125 33.75C39.7562 33.75 39.2125 33.585 38.75 33.276C38.2874 32.967 37.927 32.5277 37.7141 32.0138C37.5012 31.4999 37.4455 30.9344 37.554 30.3888C37.6626 29.8432 37.9304 29.3421 38.3238 28.9488C38.7171 28.5554 39.2182 28.2876 39.7638 28.179C40.3094 28.0705 40.8749 28.1262 41.3888 28.3391C41.9027 28.552 42.342 28.9124 42.651 29.375C42.96 29.8375 43.125 30.3812 43.125 30.9375C43.125 31.6834 42.8287 32.3988 42.3012 32.9262C41.7738 33.4537 41.0584 33.75 40.3125 33.75ZM48.75 18.75H11.25V11.25H16.875V13.125C16.875 13.6223 17.0725 14.0992 17.4242 14.4508C17.7758 14.8025 18.2527 15 18.75 15C19.2473 15 19.7242 14.8025 20.0758 14.4508C20.4275 14.0992 20.625 13.6223 20.625 13.125V11.25H39.375V13.125C39.375 13.6223 39.5725 14.0992 39.9242 14.4508C40.2758 14.8025 40.7527 15 41.25 15C41.7473 15 42.2242 14.8025 42.5758 14.4508C42.9275 14.0992 43.125 13.6223 43.125 13.125V11.25H48.75V18.75Z"
    fill="url(#paint0_linear_766_13307)" />
  <defs>
    <linearGradient id="paint0_linear_766_13307" x1="7.5" y1="28.125" x2="52.5" y2="28.125"
      gradientUnits="userSpaceOnUse">
      <stop stop-color="#7DFFD1" />
      <stop offset="1" stop-color="#FFCA7A" />
    </linearGradient>
  </defs>
</svg>