<svg width="60" height="60" viewBox="0 0 60 60" fill="none" xmlns="http://www.w3.org/2000/svg">
  <path
    d="M54.375 22.5C54.375 21.5054 53.9799 20.5516 53.2766 19.8484C52.5734 19.1451 51.6196 18.75 50.625 18.75H43.125V11.25C43.125 10.2554 42.7299 9.30161 42.0266 8.59835C41.3234 7.89509 40.3696 7.5 39.375 7.5H9.375C8.38044 7.5 7.42661 7.89509 6.72335 8.59835C6.02009 9.30161 5.625 10.2554 5.625 11.25V41.25C5.6261 41.6028 5.72669 41.948 5.91521 42.2462C6.10373 42.5443 6.37253 42.7833 6.69074 42.9355C7.00894 43.0878 7.36364 43.1472 7.71409 43.1069C8.06453 43.0666 8.39651 42.9283 8.67188 42.7078L16.875 36.0938V43.125C16.875 44.1196 17.2701 45.0734 17.9734 45.7766C18.6766 46.4799 19.6304 46.875 20.625 46.875H42.5602L51.3281 53.9578C51.6599 54.2262 52.0733 54.3733 52.5 54.375C52.9973 54.375 53.4742 54.1775 53.8258 53.8258C54.1775 53.4742 54.375 52.9973 54.375 52.5V22.5ZM44.4023 43.5422C44.0706 43.2738 43.6572 43.1267 43.2305 43.125H20.625V35.625H39.375C40.3696 35.625 41.3234 35.2299 42.0266 34.5266C42.7299 33.8234 43.125 32.8696 43.125 31.875V22.5H50.625V48.5742L44.4023 43.5422Z"
    fill="#404040" />
  <defs>
    <linearGradient id="paint0_linear_766_13334" x1="5.625" y1="30.9375" x2="54.375" y2="30.9375"
      gradientUnits="userSpaceOnUse">
      <stop stop-color="#7DFFD1" />
      <stop offset="1" stop-color="#FFCA7A" />
    </linearGradient>
  </defs>
</svg>